<?xml version="1.0" encoding="utf-8"?>
<!-- Generator: Adobe Illustrator 19.2.0, SVG Export Plug-In . SVG Version: 6.00 Build 0)  -->
<svg version="1.1"
	 id="svg2" inkscape:output_extension="org.inkscape.output.svg.inkscape" inkscape:version="0.45.1" sodipodi:docbase="C:\My Pictures\armor" sodipodi:docname="Bend cotised demo.svg" sodipodi:version="0.32" xmlns:cc="http://web.resource.org/cc/" xmlns:dc="http://purl.org/dc/elements/1.1/" xmlns:inkscape="http://www.inkscape.org/namespaces/inkscape" xmlns:rdf="http://www.w3.org/1999/02/22-rdf-syntax-ns#" xmlns:sodipodi="http://sodipodi.sourceforge.net/DTD/sodipodi-0.dtd" xmlns:svg="http://www.w3.org/2000/svg"
	 xmlns="http://www.w3.org/2000/svg" xmlns:xlink="http://www.w3.org/1999/xlink" x="0px" y="0px" viewBox="0 0 600 660"
	 style="enable-background:new 0 0 600 660;" xml:space="preserve">
<style type="text/css">
	.st0{fill:#FCEF3C;}
	.st1{fill:none;stroke:#000000;stroke-width:3;}
	.st2{fill:url(#path2875_1_);}
</style>
<sodipodi:namedview  bordercolor="#666666" borderopacity="1.0" gridtolerance="10.0" guidetolerance="10.0" id="base" inkscape:current-layer="svg2" inkscape:cx="-344.54575" inkscape:cy="733.89589" inkscape:pageopacity="0.0" inkscape:pageshadow="2" inkscape:window-height="712" inkscape:window-width="1024" inkscape:window-x="1022" inkscape:window-y="-20" inkscape:zoom="0.20195398" objecttolerance="10.0" pagecolor="#ffffff">
	</sodipodi:namedview>
<desc  id="desc4">Flag of Canton of Valais (Wallis)</desc>
<g id="layer3">
	<path id="path2855" class="st0" d="M300,658.5c0,0,298.5-112.3,298.5-397.8s0-258.6,0-258.6H1.5v258.6
		C1.5,546.2,300,658.5,300,658.5z"/>
</g>
<g id="g2766" transform="translate(-995.12739,57.552536)">
</g>
<path id="path2322" d="M1.9,2.7L1.5,104.8l455.4,455.4c33.5-27.8,64.2-63.4,88.5-105.6L93,2.1L1.9,2.7z"/>
<g id="g2212" transform="translate(-262.23614,131.95558)">
</g>
<path id="path2235" sodipodi:nodetypes="ccccc" d="M128.1,2.3L557.8,432c6.7-11.2,11.4-22.7,15.2-34.3L177.4,2.1L128.1,2.3z"/>
<path id="path2183" sodipodi:nodetypes="ccccc" d="M1.3,190.4L409,598.1l28.2-21.3L1.6,141.1L1.3,190.4z"/>
<g id="layer1">
	<path id="path1411" class="st1" d="M300,658.5c0,0-298.5-112.3-298.5-397.8s0-258.6,0-258.6h597v258.6
		C598.5,546.2,300,658.5,300,658.5z"/>
</g>
<g id="layer2" transform="translate(-0.1161778,0.6248425)">
	
		<radialGradient id="path2875_1_" cx="219.0671" cy="322.7049" r="300" gradientTransform="matrix(1.3532 0 0 1.3489 -74.4117 -215.7266)" gradientUnits="userSpaceOnUse">
		<stop  offset="0" style="stop-color:#FFFFFF;stop-opacity:0.3137"/>
		<stop  offset="0.19" style="stop-color:#FFFFFF;stop-opacity:0.251"/>
		<stop  offset="0.6" style="stop-color:#6B6B6B;stop-opacity:0.1255"/>
		<stop  offset="1" style="stop-color:#000000;stop-opacity:0.1255"/>
	</radialGradient>
	<path id="path2875" class="st2" d="M300,658.5c0,0,298.5-112.3,298.5-397.8s0-258.6,0-258.6H1.5v258.6
		C1.5,546.2,300,658.5,300,658.5z"/>
</g>
</svg>
